<?xml version="1.0" encoding="UTF-8"?>
<svg xmlns="http://www.w3.org/2000/svg" width="360" height="69" viewBox="0 0 360 69" role="img" aria-labelledby="title desc">
  <title id="title">SageXAI logo</title>
  <desc id="desc">Sparkles on the left, perfectly aligned with the SageXAI wordmark.</desc>
  <defs>
    <style>
      .brand { color: #FFFFFF; }
      .wordmark { font: 700 44px "Inter","Instrument Sans",system-ui,-apple-system,Segoe UI,Roboto,Helvetica,Arial,"Apple Color Emoji","Segoe UI Emoji"; letter-spacing: 0.2px; }
    </style>
  </defs>
  <g class="brand">
    <!-- Sparkles (left) -->
    <g transform="translate(20,24) scale(1.6)">
      <path d="M9.813 15.904 9 18.75l-.813-2.846a4.5 4.5 0 0 0-3.09-3.09L2.25 12l2.846-.813a4.5 4.5 0 0 0 3.09-3.09L9 5.25l.813 2.846a4.5 4.5 0 0 0 3.09 3.09L15.75 12l-2.846.813a4.5 4.5 0 0 0-3.09 3.09ZM18.259 8.715 18 9.75l-.259-1.035a3.375 3.375 0 0 0-2.455-2.456L14.25 6l1.036-.259a3.375 3.375 0 0 0 2.455-2.456L18 2.25l.259 1.035a3.375 3.375 0 0 0 2.456 2.456L21.75 6l-1.035.259a3.375 3.375 0 0 0-2.456 2.456ZM16.894 20.567 16.5 21.75l-.394-1.183a2.25 2.25 0 0 0-1.423-1.423L13.5 18.75l1.183-.394a2.25 2.25 0 0 0 1.423-1.423l.394-1.183.394 1.183a2.25 2.25 0 0 0 1.423 1.423l1.183.394-1.183.394a2.25 2.25 0 0 0-1.423 1.423Z" fill="none" stroke="currentColor" stroke-width="1.8" stroke-linecap="round" stroke-linejoin="round"/>
    </g>
    <!-- 16px visual gap to wordmark -->
    <text class="wordmark" x="86" y="60" fill="currentColor">SageXAI</text>
  </g>
</svg>
